<?xml version="1.0" standalone="no"?>
<!DOCTYPE svg PUBLIC "-//W3C//DTD SVG 20010904//EN"
 "http://www.w3.org/TR/2001/REC-SVG-20010904/DTD/svg10.dtd">
<svg version="1.0" xmlns="http://www.w3.org/2000/svg"
 width="1123.000000pt" height="1123.000000pt" viewBox="0 0 1123.000000 1123.000000"
 preserveAspectRatio="xMidYMid meet">
<metadata>
Created by potrace 1.11, written by Peter Selinger 2001-2013
</metadata>
<g transform="translate(0.000000,1123.000000) scale(0.100000,-0.100000)"
fill="#000000" stroke="none">
<path d="M2397 9310 c-55 -14 -51 -12 -697 -407 -636 -389 -658 -405 -709
-513 l-26 -55 0 -2680 0 -2680 32 -65 c18 -36 51 -83 75 -106 44 -42 1190
-748 1275 -786 65 -28 165 -35 234 -15 35 10 174 90 384 218 182 111 440 268
575 350 250 152 322 210 333 265 8 43 -11 93 -51 132 -31 31 -490 317 -1189
741 l-142 86 -1 1858 0 1857 78 -48 c77 -49 649 -399 1159 -711 l272 -166 1
-840 c0 -904 1 -908 53 -996 43 -75 93 -112 392 -295 160 -97 433 -265 609
-372 305 -187 375 -222 438 -222 l28 0 2 898 3 897 5 -895 5 -895 40 3 c62 5
113 33 495 267 195 120 459 281 585 358 249 152 307 199 351 286 l29 56 5 874
5 873 580 356 c319 195 660 404 758 463 l177 109 -2 -1857 -3 -1858 -190 -116
c-104 -64 -390 -239 -635 -388 -245 -150 -461 -285 -480 -300 -19 -15 -46 -48
-59 -73 -23 -41 -24 -49 -13 -86 8 -27 28 -55 60 -82 50 -45 1091 -686 1181
-728 65 -30 160 -39 230 -22 58 14 86 30 786 459 281 172 527 329 548 349 21
20 53 66 70 102 l32 65 0 2680 0 2680 -32 66 c-18 37 -51 83 -75 105 -43 40
-1193 749 -1277 788 -65 30 -206 29 -273 -1 -44 -20 -442 -261 -1128 -684
-903 -557 -1765 -1082 -1775 -1082 -14 0 -143 78 -2195 1338 -366 224 -684
417 -708 427 -50 23 -169 32 -225 18z"/>
</g>
</svg>
